<svg width="41" height="40" viewBox="0 0 41 40" fill="none" xmlns="http://www.w3.org/2000/svg">
<path fill-rule="evenodd" clip-rule="evenodd" d="M35.2469 4.77534C36.5969 5.02534 37.8169 5.71534 38.7069 6.79534C41.4969 10.1953 39.6669 15.3753 35.3969 16.2553C34.9114 16.354 34.3815 16.3596 33.811 16.3657C32.1843 16.383 30.2285 16.4038 28.0369 18.5953L27.4869 19.1453L20.8569 12.5153L21.4369 11.9353C23.2069 10.1653 23.6369 7.62534 23.6269 5.87534C23.6269 0.465342 30.1069 -1.84466 33.6369 1.68534C34.4869 2.53534 35.0369 3.61534 35.2469 4.77534ZM14.2168 19.1454L19.1968 14.1754L25.8268 20.8054L20.8568 25.7754L14.2168 19.1454ZM12.5666 20.8054L12.0066 21.3554C10.4366 22.9254 8.36658 23.7954 6.47658 23.5954C1.18658 23.0454 -1.93342 29.1654 1.33658 33.1454C2.22658 34.2254 3.44658 34.9154 4.79658 35.1654C5.00658 36.3254 5.55658 37.4054 6.40658 38.2554C10.0966 41.9454 16.4166 39.3254 16.4166 34.0654C16.4066 32.3154 16.8366 29.7754 18.5966 28.0054L19.1766 27.4254L12.5666 20.8054ZM25.827 24.1254L30.657 28.9554C30.967 29.2554 31.077 29.7054 30.947 30.1154C30.827 30.5254 30.477 30.8454 30.057 30.9254L26.677 31.6054L25.997 34.9854C25.907 35.4054 25.597 35.7554 25.187 35.8754C24.777 36.0054 24.327 35.8954 24.017 35.5854L19.417 30.9854C19.627 30.5154 19.887 30.0654 20.267 29.6854L25.827 24.1254Z" fill="url(#paint0_linear_611_12)"/>
<defs>
<linearGradient id="paint0_linear_611_12" x1="20.0191" y1="0" x2="20.0191" y2="26.4954" gradientUnits="userSpaceOnUse">
<stop stop-color="white" stop-opacity="0.6"/>
<stop offset="1" stop-color="white"/>
</linearGradient>
</defs>
</svg>
