<svg width="31" height="30" viewBox="0 0 31 30" fill="none" xmlns="http://www.w3.org/2000/svg">
<path fill-rule="evenodd" clip-rule="evenodd" d="M26.4193 3.58801L29.7494 6.91766C30.0869 7.26263 30.0869 7.81757 29.7494 8.16253C29.5769 8.33501 29.3519 8.41751 29.1269 8.41751C28.9019 8.41751 28.6768 8.33501 28.5043 8.16253L25.7968 5.44782L23.7117 7.5326L24.7543 8.57499C26.0143 9.84236 26.0143 11.8896 24.7543 13.1495L23.0967 14.8068L20.7267 17.1841L18.1091 14.5669C17.7641 14.2219 17.2091 14.2219 16.8641 14.5669C16.5191 14.9118 16.5191 15.4668 16.8641 15.8117L19.4817 18.429L17.9216 19.9888L13.969 16.0367C13.624 15.6917 13.069 15.6917 12.724 16.0367C12.379 16.3817 12.379 16.9366 12.724 17.2816L16.6766 21.2337L15.1166 22.7935L12.499 20.1763C12.154 19.8313 11.599 19.8313 11.254 20.1763C10.909 20.5212 10.909 21.0762 11.254 21.4211L13.8715 24.0384L13.159 24.7508C12.5515 25.3582 11.7415 25.6957 10.8715 25.6957C10.0015 25.6957 9.19144 25.3582 8.58393 24.7508L7.54141 23.7084L1.50378 29.7453C1.33128 29.9178 1.10627 30.0003 0.881268 30.0003C0.656264 30.0003 0.431259 29.9178 0.258755 29.7453C-0.0862518 29.4003 -0.0862518 28.8454 0.258755 28.5004L6.29638 22.471L5.25386 21.4286C4.64635 20.8212 4.30884 20.0038 4.30884 19.1414C4.30884 18.2715 4.64635 17.4616 5.25386 16.8541L15.1841 6.91766L16.8491 5.25284C17.4566 4.6454 18.2741 4.30793 19.1366 4.30793C20.0067 4.30793 20.8167 4.6454 21.4242 5.25284L22.4667 6.29523L24.5518 4.21044L21.8442 1.50323C21.4992 1.15826 21.4992 0.603321 21.8442 0.258357C22.1892 -0.0866072 22.7442 -0.0866072 23.0892 0.258357L26.4193 3.58801ZM22.4667 12.9545L23.5092 11.9121C24.0868 11.3347 24.0868 10.3973 23.5092 9.82736L20.1792 6.49771C19.9017 6.22023 19.5342 6.07025 19.1366 6.07025C18.7391 6.07025 18.3716 6.22023 18.0941 6.49771L17.0516 7.5401L22.4667 12.9545ZM23.6815 20.3264C23.8465 20.1614 23.9365 19.9364 23.9365 19.7039C23.9365 19.4714 23.839 19.2464 23.6815 19.0814C23.5165 18.9164 23.2915 18.8264 23.059 18.8264C22.8265 18.8264 22.6015 18.9239 22.4365 19.0814C22.2715 19.2464 22.1815 19.4714 22.1815 19.7039C22.1815 19.9364 22.279 20.1614 22.4365 20.3264C22.6015 20.4914 22.8265 20.5814 23.059 20.5814C23.2915 20.5814 23.5165 20.4914 23.6815 20.3264ZM21.3715 21.0688C21.3715 21.3013 21.2815 21.5263 21.1165 21.6913C20.9515 21.8563 20.7265 21.9463 20.494 21.9463C20.2615 21.9463 20.0365 21.8563 19.8715 21.6913C19.714 21.5263 19.6165 21.3013 19.6165 21.0688C19.6165 20.8363 19.7065 20.6038 19.8715 20.4463C20.0365 20.2888 20.2615 20.1913 20.494 20.1913C20.7265 20.1913 20.9515 20.2813 21.1165 20.4463C21.274 20.6113 21.3715 20.8363 21.3715 21.0688ZM19.5865 27.5855C19.5865 24.9233 21.754 22.756 24.4166 22.756C27.0791 22.756 29.2467 24.9233 29.2467 27.5855C29.2467 28.0579 29.1117 28.5154 28.8567 28.9054C28.4067 29.5878 27.6491 30.0002 26.8316 30.0002C26.2391 30.0002 25.7816 29.8653 25.3766 29.7453L25.3539 29.7387L25.3539 29.7387C25.0266 29.6441 24.7538 29.5653 24.4166 29.5653C24.0716 29.5653 23.7866 29.6478 23.4565 29.7453C23.0515 29.8653 22.594 30.0002 22.0015 30.0002C21.184 30.0002 20.4265 29.5878 19.9765 28.9054C19.7215 28.5154 19.5865 28.0579 19.5865 27.5855ZM26.6517 19.7039C26.6517 19.9364 26.5617 20.1614 26.3967 20.3264C26.2392 20.4914 26.0067 20.5889 25.7742 20.5814C25.5417 20.5814 25.3166 20.4914 25.1516 20.3264C24.9941 20.1614 24.8966 19.9364 24.8966 19.7039C24.8966 19.4714 24.9866 19.2464 25.1516 19.0814C25.3166 18.9239 25.5417 18.8264 25.7742 18.8264C26.0067 18.8264 26.2317 18.9164 26.3967 19.0814C26.5617 19.2464 26.6517 19.4714 26.6517 19.7039ZM28.9617 21.6913C29.1267 21.5263 29.2167 21.3013 29.2167 21.0688C29.2167 20.8363 29.1192 20.6113 28.9617 20.4463C28.7967 20.2813 28.5717 20.1913 28.3391 20.1913C28.1066 20.1913 27.8816 20.2888 27.7166 20.4463C27.5516 20.6038 27.4616 20.8363 27.4616 21.0688C27.4616 21.3013 27.5591 21.5263 27.7166 21.6913C27.8816 21.8563 28.1066 21.9463 28.3391 21.9463C28.5717 21.9463 28.7967 21.8563 28.9617 21.6913Z" fill="url(#paint0_linear_611_37)"/>
<defs>
<linearGradient id="paint0_linear_611_37" x1="15.0013" y1="-0.000366211" x2="15.0013" y2="18" gradientUnits="userSpaceOnUse">
<stop stop-color="white" stop-opacity="0.6"/>
<stop offset="1" stop-color="white"/>
</linearGradient>
</defs>
</svg>
